<?xml version="1.0" encoding="utf-8"?>
<!-- Generator: Adobe Adobe Illustrator 29.2.0, SVG Export Plug-In . SVG Version: 6.00 Build 0)  -->
<svg version="1.1" id="Layer_1" xmlns="http://www.w3.org/2000/svg" xmlns:xlink="http://www.w3.org/1999/xlink" x="0px" y="0px"
	 viewBox="0 0 516 386.72" style="enable-background:new 0 0 516 386.72;" xml:space="preserve">
<style type="text/css">
	.st0{opacity:0.2196;fill:#1A5BD1;}
	.st1{opacity:0.2196;fill:#7FCD31;}
	.st2{opacity:0.2196;fill:#F92791;}
	.st3{fill:#050304;stroke:#000000;stroke-miterlimit:10;}
	.st4{fill:none;stroke:#000000;stroke-width:4;stroke-miterlimit:10;}
	.st5{fill:none;stroke:#000000;stroke-width:3;stroke-miterlimit:10;}
	.st6{fill:none;stroke:#1B5BD1;stroke-width:4;stroke-miterlimit:10;}
	.st7{fill:none;stroke:#7FCD31;stroke-width:4;stroke-miterlimit:10;}
	.st8{fill:none;stroke:#F92891;stroke-width:4;stroke-miterlimit:10;}
	.st9{font-family:'SourceSansPro-Regular';}
	.st10{font-size:18px;}
	.st11{fill:#1A5BD1;}
	.st12{font-size:25px;}
	.st13{font-size:15px;}
	.st14{font-family:'SourceSansPro-Bold';}
	.st15{fill:#427D07;}
	.st16{fill:#B8005C;}
	.st17{fill:#050304;}
	.st18{font-size:40px;}
	.st19{fill:none;stroke:#050304;stroke-miterlimit:10;}
	.st20{fill:none;stroke:#000000;stroke-width:2;stroke-miterlimit:10;}
</style>
<path class="st0" d="M151.2,188.97l97.46-144.06c11.23-16.6-0.66-39.01-20.71-39.01H33.04C12.99,5.9,1.1,28.31,12.33,44.91
	l97.46,144.06C119.7,203.63,141.28,203.63,151.2,188.97z"/>
<path class="st1" d="M408.75,188.96l97.5-144.01c11.24-16.6-0.65-39.02-20.7-39.02H290.55c-20.05,0-31.94,22.41-20.7,39.02
	l97.5,144.01C377.26,203.61,398.83,203.61,408.75,188.96z"/>
<path class="st2" d="M279.75,371.35l94.3-140.25c11.17-16.61-0.73-38.95-20.75-38.95H164.7c-20.01,0-31.91,22.34-20.75,38.95
	l94.3,140.25C248.16,386.08,269.84,386.08,279.75,371.35z"/>
<circle class="st3" cx="81.88" cy="75.54" r="17.53"/>
<circle class="st3" cx="135.64" cy="53.4" r="17.53"/>
<circle class="st3" cx="123.37" cy="110.6" r="17.53"/>
<circle class="st3" cx="176.83" cy="88.46" r="17.53"/>
<circle class="st3" cx="339.54" cy="78.03" r="17.53"/>
<circle class="st3" cx="393.3" cy="55.89" r="17.53"/>
<circle class="st3" cx="381.03" cy="113.08" r="17.53"/>
<circle class="st3" cx="434.49" cy="90.94" r="17.53"/>
<circle class="st4" cx="207.88" cy="258.65" r="17.53"/>
<circle class="st4" cx="261.64" cy="236.51" r="17.53"/>
<circle class="st4" cx="249.38" cy="293.7" r="17.53"/>
<circle class="st4" cx="302.83" cy="271.56" r="17.53"/>
<path class="st5" d="M93.16,62.51c0-6.68,11.07-10.55,25.38-8.39"/>
<path class="st5" d="M133.92,97.26c11.72,2,15.67-4.05,25.38-8.39"/>
<path class="st5" d="M87.44,88.46c0,10,35.94,7.53,35.94,17.53"/>
<path class="st5" d="M87.44,70.93c19.78,14.91,44.65,10.52,85.01,10.52"/>
<path class="st5" d="M124.94,62.51c0,0-12.43,16.72-6.57,34.71"/>
<path class="st5" d="M141.33,58.02c13.23,8.85,35.94,7.53,35.94,17.53"/>
<path class="st6" d="M51.68,38.56c23.95,151.98,130.09,153.69,162.73,0"/>
<path class="st7" d="M295.47,35.49c49.75,148.11,137.13,149.42,193.36,0"/>
<path class="st8" d="M146.68,217.98c58.2,132.75,160.42,133.92,226.21,0"/>
<text transform="matrix(1 0 0 1 54.417 24.4256)" class="st9 st10">Interacting fermions</text>
<text transform="matrix(1 0 0 1 293.7003 24.426)" class="st9 st10">Non-interacting fermions</text>
<text transform="matrix(1 0 0 1 169.837 211.2388)" class="st9 st10">Non-interacting bosons</text>
<text transform="matrix(1 0 0 1 102.5979 175.8062)"><tspan x="0" y="0" class="st11 st9 st12">v</tspan><tspan x="11.7" y="0" class="st11 st9 st13">ext</tspan><tspan x="30.93" y="0" class="st11 st9 st12">(</tspan><tspan x="38.53" y="0" class="st11 st14 st12">r</tspan><tspan x="48.65" y="0" class="st11 st9 st12">)</tspan></text>
<text transform="matrix(1 0 0 1 366.3918 175.806)"><tspan x="0" y="0" class="st15 st9 st12">v</tspan><tspan x="11.7" y="0" class="st15 st9 st13">s</tspan><tspan x="17.98" y="0" class="st15 st9 st12">(</tspan><tspan x="25.58" y="0" class="st15 st14 st12">r</tspan><tspan x="35.71" y="0" class="st15 st9 st12">)</tspan></text>
<text transform="matrix(1 0 0 1 236.2359 352.8366)"><tspan x="0" y="0" class="st16 st9 st12">v</tspan><tspan x="11.7" y="0" class="st16 st9 st13">B</tspan><tspan x="20.52" y="0" class="st16 st9 st12">(</tspan><tspan x="28.12" y="0" class="st16 st14 st12">r</tspan><tspan x="38.24" y="0" class="st16 st9 st12">)</tspan></text>
<text transform="matrix(1 0 0 1 226.801 149.8883)"><tspan x="0" y="0" class="st17 st9 st18">n(</tspan><tspan x="34.04" y="0" class="st17 st14 st18">r</tspan><tspan x="50.24" y="0" class="st17 st9 st18">)</tspan></text>
<g>
	<line class="st17" x1="199.21" y1="117.27" x2="221.89" y2="131.92"/>
	<g>
		<line class="st19" x1="199.21" y1="117.27" x2="220.98" y2="131.34"/>
		<g>
			<polygon class="st17" points="215.97,132.97 215.8,131.99 220.65,131.13 219.44,126.35 220.41,126.1 221.89,131.92 			"/>
		</g>
	</g>
</g>
<g>
	<line class="st17" x1="259.79" y1="191.82" x2="259.79" y2="166.82"/>
	<g>
		<line class="st19" x1="259.79" y1="191.82" x2="259.79" y2="167.9"/>
		<g>
			<polygon class="st17" points="263.88,171.21 263.15,171.9 259.79,168.28 256.43,171.9 255.7,171.21 259.79,166.82 			"/>
		</g>
	</g>
</g>
<g>
	<line class="st17" x1="318.95" y1="117.48" x2="295.47" y2="132.33"/>
	<g>
		<line class="st19" x1="318.95" y1="117.48" x2="296.38" y2="131.75"/>
		<g>
			<polygon class="st17" points="297,126.52 297.97,126.78 296.71,131.54 301.56,132.45 301.37,133.44 295.47,132.33 			"/>
		</g>
	</g>
</g>
<g>
	<line class="st17" x1="131.45" y1="184.73" x2="161.92" y2="215.19"/>
	<g>
		<line class="st20" x1="132.98" y1="186.26" x2="160.38" y2="213.66"/>
		<g>
			<polygon points="131.89,196.73 133.89,196.66 133.53,186.81 143.38,187.17 143.45,185.17 131.45,184.73 			"/>
		</g>
		<g>
			<polygon points="149.91,214.76 149.98,212.76 159.84,213.12 159.48,203.26 161.48,203.19 161.92,215.2 			"/>
		</g>
	</g>
</g>
<g>
	<line class="st17" x1="388.13" y1="184.73" x2="357.66" y2="215.19"/>
	<g>
		<line class="st20" x1="386.6" y1="186.26" x2="359.2" y2="213.66"/>
		<g>
			<polygon points="376.13,185.16 376.2,187.17 386.05,186.8 385.69,196.66 387.69,196.73 388.13,184.73 			"/>
		</g>
		<g>
			<polygon points="358.1,203.19 360.1,203.26 359.74,213.12 369.59,212.76 369.67,214.76 357.66,215.19 			"/>
		</g>
	</g>
</g>
<g>
	<line class="st17" x1="281.96" y1="28.46" x2="237.62" y2="28.46"/>
	<g>
		<line class="st20" x1="279.79" y1="28.46" x2="239.79" y2="28.46"/>
		<g>
			<polygon points="273.16,20.28 271.8,21.74 279.02,28.46 271.8,35.17 273.16,36.64 281.96,28.46 			"/>
		</g>
		<g>
			<polygon points="246.42,20.28 247.78,21.74 240.56,28.46 247.78,35.17 246.42,36.64 237.62,28.46 			"/>
		</g>
	</g>
</g>
</svg>
